<?xml version="1.0" standalone="no"?>
<!DOCTYPE svg PUBLIC "-//W3C//DTD SVG 20010904//EN"
 "http://www.w3.org/TR/2001/REC-SVG-20010904/DTD/svg10.dtd">
<svg version="1.0" xmlns="http://www.w3.org/2000/svg"
 width="460.000000pt" height="460.000000pt" viewBox="0 0 460.000000 460.000000"
 preserveAspectRatio="xMidYMid meet">

<g transform="translate(0.000000,460.000000) scale(0.100000,-0.100000)"
fill="#000000" stroke="none">
<path d="M196 4579 c-11 -11 -33 -19 -51 -19 -26 0 -42 -11 -89 -61 -31 -34
-56 -64 -56 -68 0 -4 14 -6 31 -3 21 3 37 -2 53 -17 15 -14 41 -23 84 -27 34
-4 66 -12 71 -18 19 -24 -8 -56 -69 -83 -33 -15 -60 -30 -60 -34 0 -9 50 0 77
13 30 15 41 3 19 -21 -26 -28 0 -38 28 -11 13 11 47 27 75 35 33 8 59 23 72
39 14 17 30 26 50 26 27 0 28 1 17 25 -9 20 -8 28 4 42 9 10 21 37 27 61 12
41 12 42 56 42 38 0 45 -3 45 -20 0 -11 -4 -20 -10 -20 -5 0 -10 -7 -10 -15 0
-8 -7 -15 -15 -15 -8 0 -15 -4 -15 -10 0 -5 4 -10 8 -10 10 0 52 -99 52 -122
0 -9 5 -20 10 -23 6 -3 10 -15 10 -26 0 -11 7 -19 16 -19 8 0 12 5 8 11 -4 7
1 10 12 7 13 -2 19 -12 19 -29 1 -31 52 -100 69 -93 8 3 30 -14 50 -38 32 -37
39 -41 56 -31 14 10 20 10 24 0 2 -7 4 -3 4 8 -1 11 0 41 0 68 2 40 5 47 22
47 12 0 32 -11 46 -25 17 -18 32 -24 45 -20 14 5 31 -6 64 -40 25 -25 45 -51
45 -57 0 -8 3 -8 9 -2 12 11 -23 124 -41 135 -6 4 -13 17 -15 28 -2 12 -4 30
-6 41 -5 30 -14 34 -27 11 -6 -12 -18 -21 -28 -21 -19 0 -92 92 -92 115 0 19
31 55 42 49 4 -3 8 0 8 5 0 6 -4 11 -10 11 -14 0 -13 43 2 58 21 21 45 13 69
-23 28 -42 47 -49 84 -35 16 6 41 8 57 5 27 -6 28 -5 23 17 -5 18 1 32 23 56
33 35 72 43 72 15 0 -15 2 -15 14 3 9 13 36 25 70 33 30 7 60 19 66 27 17 19
49 18 56 -3 3 -10 10 -26 16 -37 7 -14 5 -25 -9 -44 -20 -26 -28 -32 -78 -54
-16 -7 -39 -28 -50 -45 -14 -23 -28 -32 -48 -33 -20 0 -30 -7 -38 -27 -6 -16
-15 -36 -20 -45 -5 -10 -9 -25 -9 -33 0 -9 -7 -18 -15 -21 -8 -4 -15 -17 -15
-30 0 -22 4 -24 43 -24 34 0 50 7 82 35 22 20 57 50 78 68 21 17 54 49 74 70
43 44 55 45 95 12 16 -14 36 -25 44 -25 8 0 14 -4 14 -10 0 -21 15 -9 16 13 3
37 58 141 82 153 12 6 30 18 40 27 36 33 61 19 80 -43 13 -40 23 -115 15 -106
-9 8 -44 -14 -38 -24 7 -12 -28 -33 -84 -50 -34 -11 -47 -21 -57 -47 -8 -18
-23 -37 -34 -43 -11 -6 -23 -23 -26 -38 -14 -60 -30 -72 -93 -72 -40 0 -63 5
-71 15 -16 20 -27 19 -33 -2 -2 -10 -8 -27 -13 -37 -6 -16 -4 -18 10 -13 10 4
15 3 11 -3 -3 -6 -2 -10 4 -10 5 0 13 5 16 10 4 7 11 8 18 1 7 -5 25 -11 42
-13 39 -4 46 -34 11 -49 -15 -7 -28 -23 -31 -40 -4 -15 -13 -33 -21 -40 -20
-16 -18 -31 4 -25 32 10 66 -30 56 -68 -5 -22 -12 -26 -45 -26 -36 0 -79 -26
-79 -47 1 -39 71 -37 97 3 18 28 53 31 76 7 26 -30 78 -135 76 -157 -6 -101
-2 -146 15 -186 32 -78 34 -85 35 -105 0 -11 1 -32 2 -47 0 -15 5 -30 10 -33
5 -4 9 -22 9 -41 0 -23 5 -34 14 -34 22 0 24 -23 4 -44 -22 -24 -9 -36 42 -36
37 0 63 -11 61 -26 -1 -4 42 -16 96 -25 126 -21 225 -51 288 -88 28 -16 95
-70 150 -121 104 -96 170 -161 127 -125 -33 27 -36 14 -4 -22 68 -76 83 -95
79 -100 -3 -2 -20 16 -39 40 -43 59 -65 72 -85 55 -14 -12 -15 -11 -5 9 15 28
15 34 -1 27 -8 -3 -20 2 -27 11 -11 14 -11 16 1 13 8 -2 14 4 14 12 0 8 -8 14
-17 14 -10 -1 -16 2 -13 6 7 11 -20 31 -29 22 -4 -4 -6 -1 -4 7 2 10 -6 15
-22 15 -14 0 -34 12 -46 25 -20 23 -24 24 -40 11 -17 -14 -18 -14 -6 2 12 15
9 20 -27 42 -111 70 -319 112 -413 83 -42 -13 -47 -13 -54 2 -4 9 -6 20 -5 24
1 5 -3 6 -8 3 -15 -9 -41 23 -41 50 0 14 -7 27 -15 31 -18 6 -55 -23 -55 -44
0 -7 -6 -13 -14 -13 -8 0 -16 -7 -20 -15 -4 -12 -10 -13 -31 -3 -22 10 -31 8
-68 -19 -24 -16 -58 -35 -76 -41 -18 -6 -42 -23 -52 -36 -27 -34 -47 -23 -51
27 -3 40 -5 43 -45 55 -38 12 -45 12 -67 -5 -13 -10 -24 -26 -23 -35 1 -21 5
-22 37 -3 14 8 30 14 36 15 11 0 34 -41 34 -60 0 -19 -38 -10 -53 13 -16 24
-21 23 -31 -10 -5 -15 -1 -27 14 -41 l21 -20 -22 -16 c-13 -9 -29 -16 -36 -16
-7 0 -21 -4 -31 -9 -9 -5 -25 -12 -35 -15 -9 -3 -17 -14 -17 -25 0 -11 -4 -23
-10 -26 -15 -9 -12 -45 4 -45 7 0 19 -6 26 -14 6 -8 28 -16 47 -18 46 -4 52
-21 17 -53 -33 -30 -39 -31 -61 -5 -10 11 -25 20 -33 20 -9 0 -25 7 -36 15
-10 8 -28 15 -39 15 -69 1 -122 35 -151 97 -9 17 -24 33 -35 36 -12 3 -19 14
-19 31 0 27 -41 59 -48 37 -2 -6 -10 -11 -19 -11 -8 0 -13 6 -10 13 2 6 16 12
30 12 21 -1 26 3 22 16 -3 9 1 22 10 29 8 7 20 30 25 51 9 34 15 39 40 39 35
0 38 5 33 52 -4 29 -10 38 -30 43 -14 3 -31 1 -39 -5 -10 -9 -23 -9 -51 1 -30
9 -38 9 -41 -1 -3 -7 -17 -27 -33 -44 l-28 -31 -43 23 c-60 31 -67 28 -29 -12
20 -20 31 -41 29 -52 -3 -16 -12 -19 -60 -17 -49 2 -58 -1 -63 -18 -8 -26 -19
-24 -35 5 -15 29 -32 37 -49 26 -10 -6 -10 -12 -2 -28 15 -28 14 -42 -4 -42
-8 0 -15 -4 -15 -9 0 -5 28 -7 63 -5 34 2 73 4 86 5 27 1 57 -24 47 -40 -4 -6
-15 -11 -25 -11 -10 0 -24 -7 -31 -15 -10 -12 -8 -16 11 -24 15 -5 29 -5 36 1
16 13 53 -8 53 -29 0 -13 -8 -15 -45 -11 -49 6 -64 -4 -44 -29 11 -13 10 -17
-6 -30 -18 -12 -22 -12 -37 7 -19 23 -73 27 -81 6 -3 -8 5 -24 19 -37 19 -17
27 -20 36 -11 18 18 36 15 43 -8 9 -28 -12 -60 -39 -60 -13 0 -29 -7 -36 -15
-18 -21 -48 -19 -62 6 -7 11 -41 34 -75 51 -45 21 -63 36 -63 49 0 17 5 19 35
13 42 -8 47 8 9 32 -14 9 -23 23 -20 30 4 10 -5 14 -33 14 -27 0 -44 -7 -61
-25 -31 -33 -57 -32 -65 3 -5 21 -20 34 -65 56 -64 31 -83 29 -61 -7 10 -15
10 -22 2 -25 -7 -2 -11 -45 -11 -133 l0 -129 24 0 c14 0 28 -5 31 -10 10 -16
-16 -42 -37 -37 -17 5 -18 -5 -18 -151 1 -107 4 -152 10 -140 15 24 95 17 123
-11 17 -16 19 -25 11 -38 -23 -37 -39 -38 -93 -5 -44 27 -51 29 -51 14 0 -10
5 -23 12 -30 8 -8 8 -15 1 -24 -7 -8 -11 -68 -11 -146 -1 -109 2 -133 13 -128
22 8 40 -21 25 -39 -7 -8 -19 -15 -26 -15 -10 0 -14 -13 -14 -41 0 -35 3 -40
18 -34 28 11 106 24 114 19 5 -3 8 -11 8 -19 0 -12 -34 -25 -127 -51 -10 -2
-13 -35 -13 -119 0 -113 1 -116 24 -125 13 -5 27 -13 30 -18 8 -14 -21 -35
-39 -28 -10 3 -15 -1 -15 -14 0 -17 47 -46 102 -64 29 -9 20 -23 -18 -31 -26
-4 -41 -2 -53 9 -10 9 -21 16 -24 16 -4 0 -7 -43 -7 -95 0 -61 4 -95 11 -95 6
0 45 -16 86 -35 99 -46 89 -65 -18 -35 -40 11 -75 20 -76 20 -2 0 -3 -40 -3
-90 l0 -89 35 -7 c19 -3 93 1 163 11 70 9 202 19 294 22 142 5 190 2 315 -17
186 -29 214 -39 103 -39 -47 1 -96 -2 -110 -5 -14 -3 -175 -6 -357 -6 -220 0
-333 -4 -333 -11 0 -14 183 -99 229 -107 l36 -6 -35 -8 c-19 -4 -58 -10 -85
-13 -28 -3 -66 -9 -85 -15 -43 -12 -49 -6 -22 23 12 13 22 28 22 34 0 6 -24
20 -52 32 -29 12 -65 28 -80 36 -14 8 -29 15 -32 15 -3 0 -6 -29 -6 -63 0 -59
2 -65 25 -75 14 -7 32 -12 40 -12 7 0 21 -7 29 -16 26 -26 158 -95 201 -105
22 -5 92 -18 155 -29 179 -32 300 -69 300 -91 0 -15 -58 -10 -185 16 -66 13
-122 21 -125 18 -3 -3 1 -8 7 -10 25 -9 56 -40 47 -46 -6 -3 -45 15 -87 40
l-77 45 -48 -43 c-26 -24 -48 -46 -50 -50 -2 -4 13 -10 32 -13 63 -12 51 -26
-23 -26 -59 0 -75 -4 -92 -21 -43 -43 2 -88 116 -118 37 -10 46 -7 136 35 99
46 149 58 156 38 2 -6 -10 -17 -27 -24 -35 -14 -36 -18 -12 -36 16 -12 15 -13
-5 -14 -31 0 -29 -14 3 -28 18 -9 24 -17 19 -31 -5 -15 1 -19 36 -24 42 -5 68
-20 52 -30 -4 -2 -42 4 -83 14 -58 14 -81 16 -102 7 -15 -5 -25 -15 -22 -20 3
-5 12 -7 20 -4 25 9 176 -13 194 -29 14 -12 52 -15 223 -15 l206 0 5 33 c11
67 26 176 26 188 0 8 -11 10 -34 6 -21 -3 -41 0 -53 8 -17 12 -16 14 12 20 17
4 36 8 43 11 6 2 12 -1 12 -6 0 -5 6 -7 13 -4 14 5 46 134 87 354 12 63 28
138 36 165 8 28 16 89 19 135 8 133 24 364 26 376 2 6 16 11 33 10 25 -1 34
-8 48 -36 10 -19 18 -48 18 -64 0 -55 14 -15 17 47 2 65 4 77 17 115 12 35 31
20 30 -24 -2 -98 -9 -180 -15 -189 -4 -5 -10 -26 -13 -45 -5 -28 -5 -31 4 -17
6 9 16 17 21 17 17 0 4 -87 -25 -170 -15 -41 -25 -81 -24 -89 2 -8 14 17 28
55 l25 69 8 -168 c9 -182 6 -197 -40 -197 -16 0 -40 15 -65 40 -39 39 -58 49
-58 31 0 -5 -7 -12 -16 -15 -14 -5 -15 0 -9 40 3 26 9 54 11 63 3 9 -5 -4 -16
-28 -27 -57 -44 -135 -32 -139 6 -2 8 -13 5 -25 -4 -20 -3 -20 7 -4 18 27 30
10 30 -41 l0 -47 18 34 c25 51 40 50 44 -1 l4 -43 18 63 c18 57 22 62 48 62
20 0 28 -5 28 -18 0 -10 -4 -22 -9 -27 -9 -10 -51 -166 -51 -189 0 -8 14 -16
32 -18 28 -4 29 -4 13 8 -10 7 -22 11 -26 8 -5 -3 -9 4 -9 15 0 29 48 81 75
81 22 0 24 -5 31 -88 4 -48 8 -121 8 -163 0 -68 -3 -81 -26 -111 -15 -20 -42
-42 -60 -50 -18 -8 -44 -20 -58 -26 -19 -8 27 -11 199 -11 l224 -1 -7 112 c-4
62 -14 169 -22 238 -17 148 -19 617 -4 790 16 174 15 181 -25 390 -49 259 -56
399 -25 501 20 66 29 81 89 139 36 36 93 79 126 96 61 32 170 64 219 64 15 0
50 8 78 17 45 14 63 15 130 5 140 -20 207 -63 258 -162 32 -64 120 -406 145
-564 20 -126 34 -419 22 -473 -4 -21 -24 -72 -44 -113 -36 -73 -36 -75 -24
-130 63 -288 64 -296 67 -442 3 -156 5 -169 35 -234 11 -23 25 -68 31 -100 6
-33 15 -76 20 -96 l9 -38 284 0 285 0 -6 58 -6 58 43 14 c24 8 70 38 102 67
42 38 76 58 125 74 40 13 75 32 87 46 50 62 105 116 105 102 0 -8 -13 -40 -29
-71 -16 -31 -27 -59 -25 -61 3 -3 -13 -22 -35 -43 -22 -21 -38 -40 -36 -42 6
-7 -31 -68 -75 -122 -52 -64 -58 -75 -31 -61 12 7 21 8 21 2 0 -5 -6 -12 -13
-14 -6 -3 31 -6 83 -6 66 -1 102 3 115 13 39 26 64 28 94 7 28 -20 42 -21 286
-21 240 0 256 1 251 18 -7 22 8 47 23 38 15 -10 14 -43 -2 -49 -6 -3 21 -6 61
-6 l72 -1 0 255 c0 245 -1 255 -19 255 -22 0 -35 28 -25 55 6 16 9 15 25 -6
18 -23 19 -18 19 240 0 239 -1 262 -16 250 -13 -10 -17 -10 -25 2 -12 18 -11
26 1 34 6 4 17 1 25 -5 13 -11 15 63 15 582 l0 594 -30 11 c-34 13 -39 30 -12
40 9 4 23 13 31 21 12 12 12 15 0 23 -17 11 -51 1 -62 -17 -4 -8 -32 -26 -62
-41 -32 -15 -55 -33 -55 -42 -1 -9 -10 4 -21 28 l-21 43 26 27 c14 15 26 32
26 38 0 21 -21 25 -40 8 -12 -11 -40 -18 -74 -20 -31 -2 -60 -6 -66 -10 -6 -4
-23 3 -36 16 l-25 23 -47 -24 c-74 -39 -77 -48 -34 -93 47 -49 68 -60 98 -53
30 8 30 23 2 53 -25 27 -19 38 17 29 18 -5 25 -12 21 -21 -3 -8 -2 -15 3 -15
5 0 11 -18 15 -39 3 -22 9 -46 12 -55 5 -12 0 -16 -23 -16 -38 0 -110 -47
-126 -82 -6 -16 -15 -28 -19 -28 -14 0 -8 33 8 51 15 17 15 19 -12 31 -16 6
-37 18 -46 26 -16 14 -16 16 2 40 34 42 23 68 -24 56 -14 -3 -27 -13 -29 -22
-3 -11 -5 -9 -6 6 -1 16 -6 22 -18 20 -26 -5 -26 -23 2 -56 22 -26 24 -35 15
-52 -12 -23 -41 -20 -72 7 -9 9 -32 19 -50 22 -26 6 -40 2 -66 -18 -18 -13
-45 -26 -60 -27 -19 -2 -23 -1 -12 6 12 8 12 11 -3 28 -9 10 -17 24 -17 30 0
6 -11 19 -25 28 -23 15 -38 53 -15 39 11 -7 50 11 50 23 0 4 -7 15 -15 26 -13
18 -16 18 -55 2 -44 -18 -70 -11 -89 22 -9 16 -12 16 -47 -3 -20 -11 -39 -25
-41 -32 -8 -22 -40 -15 -57 13 -22 33 -17 67 11 74 12 3 31 17 42 32 18 22 19
31 10 51 -8 18 -8 30 1 47 6 12 9 24 7 27 -9 9 -47 -22 -47 -39 0 -9 -4 -20
-10 -23 -5 -3 -10 -17 -10 -30 0 -30 -21 -37 -55 -19 -15 8 -33 14 -39 14 -7
0 -22 9 -35 21 -19 18 -26 19 -51 9 -16 -7 -42 -9 -57 -6 -33 8 -61 -17 -82
-71 -7 -17 -19 -34 -27 -37 -16 -6 -8 -36 10 -36 16 0 56 -42 56 -58 0 -7 -9
-12 -20 -12 -11 0 -23 -8 -27 -17 -3 -10 -15 -28 -25 -39 -19 -21 -19 -21 12
-28 27 -5 31 -9 28 -33 -2 -23 -8 -29 -35 -31 -54 -5 -56 -27 -16 -128 38 -96
47 -113 41 -75 -3 27 9 36 31 22 16 -10 18 -74 2 -79 -6 -2 -11 -13 -11 -25
-1 -20 -2 -20 -11 -4 -5 9 -7 23 -3 30 4 6 3 9 -1 4 -5 -4 -25 37 -45 90 -20
54 -46 116 -58 138 -25 45 -27 55 -11 55 13 0 43 29 36 36 -2 3 -17 6 -33 7
-23 2 -29 -2 -27 -18 1 -17 -1 -17 -18 5 -10 14 -19 28 -19 32 -1 27 -275 352
-290 343 -4 -2 -29 19 -56 47 -40 42 -43 47 -16 29 18 -13 40 -34 48 -47 9
-13 20 -22 24 -19 19 11 -301 311 -397 372 -59 38 -206 95 -290 114 -50 11
-52 14 -47 38 7 29 30 51 54 51 29 0 184 -49 240 -76 74 -35 181 -116 287
-218 l87 -83 17 46 c26 74 38 94 53 82 9 -8 22 -1 49 27 38 39 55 84 40 105
-5 6 -9 36 -8 65 1 39 7 58 22 74 31 31 55 14 77 -54 9 -29 45 -21 81 18 29
30 33 39 24 61 -9 25 -5 43 12 43 5 0 9 -7 9 -15 0 -14 3 -14 24 0 20 13 24
27 29 88 4 40 9 95 12 122 6 44 3 53 -19 79 -14 16 -26 33 -26 38 0 4 -16 23
-36 42 -54 51 -126 55 -199 11 -11 -7 -41 -15 -67 -19 -27 -3 -56 -14 -67 -25
-23 -23 -46 -63 -43 -74 1 -4 -12 -10 -29 -14 -17 -3 -33 -12 -36 -19 -3 -8
-10 -14 -16 -14 -6 0 -19 -8 -29 -17 -13 -12 -22 -13 -29 -6 -12 12 -57 1 -97
-25 -14 -9 -34 -12 -52 -8 -17 3 -30 1 -30 -4 0 -17 -20 -11 -27 8 -4 9 -13
23 -20 30 -7 7 -10 24 -7 41 5 24 2 29 -20 35 -17 4 -33 19 -43 42 -13 27 -22
34 -38 30 -13 -3 -29 5 -48 24 -27 27 -28 31 -17 64 14 42 5 66 -16 39 -7 -10
-14 -13 -14 -6 0 6 -7 19 -17 28 -14 14 -14 18 -2 26 8 5 24 9 37 10 73 4 73
4 95 -36 24 -43 43 -47 40 -9 -1 13 1 24 5 24 4 0 6 24 4 52 -6 129 -4 134 48
171 22 16 48 43 56 60 19 37 49 68 58 60 3 -4 6 -2 6 4 0 6 6 10 13 10 6 -1
35 10 62 23 28 14 71 25 98 26 74 2 77 3 77 19 0 22 17 18 73 -16 42 -26 54
-29 69 -20 13 8 24 8 38 1 16 -8 24 -7 36 5 8 8 17 15 19 15 7 0 46 -44 57
-64 10 -18 8 -17 -17 2 -15 12 -31 19 -36 16 -5 -3 -9 -1 -9 4 0 20 -42 -1
-51 -25 -12 -32 -12 -90 1 -113 8 -15 89 -70 104 -70 3 0 3 8 0 18 -3 9 2 5
11 -10 16 -29 31 -38 22 -15 -10 26 8 35 28 14 15 -15 16 -19 4 -14 -24 8 -16
-32 17 -88 15 -26 33 -63 40 -83 7 -21 18 -36 23 -34 6 1 11 -4 12 -10 0 -7 2
-23 3 -36 2 -16 -2 -21 -11 -18 -10 4 -13 -6 -13 -41 0 -25 3 -44 6 -41 3 4
19 2 35 -2 34 -10 48 4 19 20 -24 13 -26 35 -4 44 23 9 81 -19 89 -43 9 -30
24 -26 54 12 12 15 12 17 -1 12 -9 -4 -18 1 -22 12 -3 10 -8 23 -11 29 -4 7 3
10 19 7 14 -3 28 -14 32 -25 3 -11 24 -28 46 -38 43 -19 80 -64 71 -87 -4 -10
-13 -8 -39 12 -41 32 -71 32 -114 0 -31 -23 -36 -24 -57 -10 -12 8 -25 15 -28
15 -9 0 -5 -49 5 -55 13 -8 13 -48 -1 -62 -13 -13 -4 -33 15 -33 8 0 19 -7 26
-15 8 -9 22 -12 41 -8 16 3 29 1 29 -4 0 -5 6 -17 13 -27 17 -23 47 -11 47 19
0 13 5 25 12 27 6 2 8 9 4 16 -5 9 -14 8 -32 -5 -34 -22 -70 -5 -79 36 -4 17
-11 33 -16 36 -5 4 -9 15 -9 26 0 30 73 26 116 -6 18 -14 41 -25 52 -25 28 0
82 -29 82 -45 0 -7 -11 -26 -24 -42 -13 -15 -25 -37 -27 -48 -3 -13 -14 -21
-31 -23 -19 -2 -25 -8 -21 -21 2 -10 -7 -32 -23 -50 -20 -24 -29 -47 -32 -86
-3 -38 -11 -60 -29 -79 -27 -30 -33 -31 -55 -13 -24 18 -29 59 -12 91 15 30
10 65 -10 78 -8 6 -7 8 2 8 6 0 12 5 12 10 0 19 -21 10 -53 -25 -18 -18 -44
-39 -59 -44 -32 -12 -39 -36 -8 -28 11 3 18 1 15 -3 -3 -5 -1 -11 4 -15 6 -3
7 -13 4 -21 -7 -18 13 -34 43 -34 17 0 23 -12 38 -68 10 -38 17 -75 15 -83 -1
-8 3 -27 9 -42 7 -16 12 -36 12 -46 0 -25 11 -33 27 -20 7 6 13 9 13 5 0 -15
68 34 88 65 27 39 64 46 71 14 3 -18 18 -35 31 -35 7 0 30 51 30 66 0 7 -15
21 -32 33 -18 11 -42 26 -53 33 -32 20 -35 30 -29 81 5 38 4 47 -9 47 -17 0
-27 20 -27 54 0 27 39 66 66 66 13 0 25 14 38 46 11 28 28 50 44 57 21 10 27
8 43 -13 35 -46 40 -50 59 -50 24 0 34 16 18 27 -12 7 -17 9 -37 12 -11 1 -22
67 -14 87 3 8 12 14 20 14 12 0 14 8 10 34 -6 37 3 51 38 58 11 2 19 10 17 16
-1 7 4 15 13 18 8 3 17 21 21 39 3 19 13 36 21 39 11 5 13 17 9 53 -2 26 -1
52 4 58 4 5 13 36 19 69 11 62 25 86 47 86 15 0 24 -12 29 -41 6 -31 9 -32 49
-12 42 20 61 13 86 -31 14 -24 13 -29 -2 -57 -23 -40 -23 -54 5 -76 12 -10 27
-28 33 -39 11 -18 7 -21 -48 -39 -48 -15 -67 -17 -99 -8 -22 6 -42 6 -45 2 -3
-5 -18 -9 -33 -9 -15 0 -36 -6 -47 -14 -18 -14 -18 -15 -1 -22 10 -3 23 -2 29
4 7 7 18 8 27 3 22 -11 131 -20 136 -10 3 4 24 5 47 3 24 -2 72 -5 107 -7 60
-3 66 -5 97 -43 28 -32 36 -37 51 -28 10 6 22 24 27 41 8 26 16 32 50 38 85
14 116 14 116 -1 0 -9 5 -12 10 -9 6 4 8 10 6 14 -3 4 0 13 5 21 7 11 8 3 4
-26 -5 -31 -2 -44 10 -54 14 -11 17 -11 21 6 20 71 51 149 59 149 11 0 51
-137 64 -220 8 -49 9 -48 11 30 1 44 3 94 4 110 12 118 22 173 52 264 33 101
34 108 34 269 0 127 -3 163 -12 154 -6 -6 -12 -28 -14 -49 -2 -43 -32 -155
-43 -163 -5 -3 -11 -33 -14 -68 -4 -35 -11 -71 -17 -80 -7 -12 -8 -5 -4 28 14
110 46 274 60 313 9 23 18 54 21 70 3 15 9 30 14 33 5 3 9 77 9 165 l0 159
-122 0 c-97 0 -125 -3 -139 -16 -18 -16 -59 -12 -59 7 0 5 -37 9 -83 9 -81 0
-84 -1 -115 -33 -18 -18 -32 -40 -32 -49 0 -8 -11 -32 -25 -52 -14 -20 -28
-55 -31 -77 -7 -42 -30 -62 -44 -39 -5 7 -6 19 -3 27 3 7 -7 25 -22 39 -16 14
-24 29 -19 32 5 4 9 13 10 20 1 6 2 21 2 32 1 11 18 38 38 60 l36 40 -41 0
c-37 0 -41 -2 -41 -26 0 -17 -6 -28 -19 -31 -10 -2 -28 -18 -40 -34 -23 -31
-47 -36 -97 -19 -16 5 -43 11 -61 14 -17 2 -36 7 -41 10 -5 3 -25 -5 -44 -17
-18 -13 -39 -22 -46 -19 -8 2 -10 -2 -5 -13 5 -14 2 -16 -15 -11 -42 14 -44
-7 -2 -21 37 -13 59 -17 110 -22 11 -1 9 -7 -9 -22 -13 -11 -21 -22 -18 -25 3
-3 16 3 28 15 26 24 92 56 135 65 27 6 34 3 58 -29 42 -55 33 -70 -41 -70 -48
0 -68 -5 -92 -23 -17 -12 -45 -25 -61 -29 -17 -3 -36 -13 -43 -23 -7 -9 -25
-25 -40 -35 -26 -17 -27 -19 -11 -36 16 -18 16 -19 -4 -19 -12 0 -22 -4 -22
-9 0 -5 -3 -16 -6 -25 -5 -12 1 -16 25 -16 21 0 35 -7 46 -24 14 -22 15 -28 1
-60 -8 -20 -13 -43 -10 -50 3 -8 0 -24 -6 -37 -7 -12 -12 -40 -12 -63 1 -48
-20 -76 -58 -76 -15 0 -36 -10 -50 -25 -13 -14 -33 -25 -46 -25 -12 0 -28 -7
-35 -16 -11 -14 -10 -18 6 -31 48 -35 54 -35 63 -1 6 26 14 34 36 36 15 2 33
-1 39 -7 7 -5 28 -9 46 -9 18 1 36 -5 41 -12 10 -16 2 -46 -16 -61 -8 -6 -14
-23 -14 -38 -1 -28 -60 -126 -110 -178 -26 -28 -31 -30 -44 -17 -13 12 -13 20
-3 42 6 15 17 31 24 35 16 10 -39 60 -77 72 -52 15 -89 92 -59 122 15 15 3 33
-24 33 -66 1 -90 8 -101 28 -12 22 -83 82 -98 82 -5 0 -8 10 -6 22 4 29 82 69
120 63 15 -2 30 0 33 5 16 27 174 79 242 81 l38 1 -37 15 c-21 9 -38 20 -38
24 0 5 -13 9 -29 9 -16 0 -31 5 -33 12 -6 18 -41 19 -60 1 -11 -10 -27 -14
-46 -10 -15 3 -46 1 -68 -4 -93 -23 -134 -26 -145 -13 -9 11 -8 14 5 14 19 0
21 19 2 26 -8 3 -11 15 -8 31 3 18 1 24 -7 19 -7 -5 -11 0 -11 13 0 10 -2 26
-6 34 -3 10 5 17 28 22 l33 7 -35 8 c-38 9 -74 45 -66 67 4 8 -5 18 -20 24
-23 8 -26 14 -20 41 3 17 1 37 -5 44 -17 20 -3 44 26 44 14 0 25 4 25 10 0 5
13 7 30 4 17 -4 36 -2 43 5 29 24 24 -3 -9 -49 l-35 -49 36 6 c42 7 64 -9 85
-62 13 -34 16 -36 51 -30 32 6 39 3 63 -25 25 -30 29 -31 64 -22 32 9 34 11
16 17 -13 4 -21 14 -19 23 1 10 -5 25 -13 35 -9 10 -17 35 -18 55 0 20 -5 45
-9 55 -4 9 -5 23 -2 31 4 11 -8 16 -54 21 -42 5 -63 13 -73 27 -10 14 -32 22
-81 28 -52 6 -73 14 -95 35 -22 21 -41 28 -88 32 -59 6 -60 5 -76 -24 -24 -48
-46 -50 -84 -9 -23 26 -41 36 -62 36 -36 0 -36 -2 -8 -40 12 -16 19 -33 15
-36 -4 -4 -56 -8 -117 -10 -86 -2 -113 -6 -126 -19 -25 -24 -30 -9 -9 28 17
32 17 34 -1 55 -14 17 -30 22 -68 22 -27 0 -46 -3 -43 -7 4 -3 20 -6 37 -5 19
0 28 -3 24 -10 -4 -6 -1 -13 5 -17 6 -4 14 -20 17 -34 3 -21 1 -25 -11 -21 -8
3 -13 10 -10 14 3 5 2 15 -1 24 -7 18 -39 22 -49 6 -3 -5 -21 -10 -38 -10 -27
1 -30 3 -17 13 8 7 16 20 18 29 3 16 -28 17 -458 18 -447 0 -460 0 -480 -20
-25 -25 -50 -26 -57 -1 -5 19 -16 20 -291 20 -158 0 -281 -4 -273 -8 16 -10 9
-36 -19 -69 -14 -17 -25 -21 -44 -16 -14 3 -26 10 -26 14 0 5 -8 11 -18 14
-10 3 -25 19 -35 35 l-16 28 -148 2 -148 2 1 -47 c1 -87 -60 -120 -116 -64
-26 26 -17 46 31 70 40 21 59 40 37 39 -7 0 -22 -9 -32 -20z m4360 -25 c-9 -8
-16 -20 -16 -26 0 -6 -3 -9 -6 -5 -3 3 2 20 12 37 10 17 20 26 22 20 2 -5 -4
-17 -12 -26z m-2546 -14 c0 -5 -2 -10 -4 -10 -3 0 -8 5 -11 10 -3 6 -1 10 4
10 6 0 11 -4 11 -10z m2251 1 c21 13 56 11 72 -6 19 -18 11 -50 -17 -73 -11
-10 -26 -27 -32 -37 -6 -11 -21 -21 -33 -23 -12 -2 -19 -8 -16 -13 4 -5 -3 -9
-14 -9 -12 0 -21 4 -21 10 0 5 -20 18 -44 28 -24 11 -46 25 -50 31 -18 28 91
107 125 90 8 -4 22 -3 30 2z m-2517 -20 c3 -4 -6 -13 -19 -19 -22 -10 -25 -9
-25 8 0 20 33 29 44 11z m356 0 c0 -4 11 -7 23 -6 13 2 24 -2 24 -9 0 -6 -15
-11 -34 -10 -37 1 -48 8 -38 23 7 13 25 15 25 2z m650 -20 c3 -3 19 -14 35
-23 18 -10 36 -32 45 -55 17 -45 48 -83 35 -44 -5 16 -4 21 4 17 16 -10 13
-36 -5 -43 -8 -3 -13 -12 -10 -19 12 -30 -5 -12 -18 20 -19 47 -47 72 -73 68
-13 -2 -23 1 -23 5 0 11 41 11 58 0 7 -5 12 -3 12 3 0 7 -9 14 -20 17 -11 3
-20 9 -20 14 0 5 -7 9 -15 9 -9 0 -18 7 -21 15 -4 8 -9 13 -13 10 -4 -2 -8 2
-8 9 0 13 25 11 37 -3z m-60 -1 c11 -7 7 -10 -17 -10 -18 0 -33 5 -33 10 0 13
30 13 50 0z m-173 -6 c-3 -3 -12 -4 -19 -1 -8 3 -5 6 6 6 11 1 17 -2 13 -5z
m-2117 -23 c0 -5 -7 -11 -15 -15 -9 -3 -15 0 -15 9 0 8 7 15 15 15 8 0 15 -4
15 -9z m240 -22 c0 -27 -25 -34 -52 -15 -17 12 -18 16 -6 16 9 0 18 7 22 15 7
20 36 8 36 -16z m1050 22 c0 -12 -20 -25 -27 -18 -7 7 6 27 18 27 5 0 9 -4 9
-9z m-916 -34 c13 -37 -3 -52 -41 -40 -31 11 -41 36 -22 59 19 23 52 13 63
-19z m1949 -10 c-3 -4 -6 -7 -7 -5 -1 2 -8 12 -16 22 -14 18 -14 18 7 6 12 -8
19 -18 16 -23z m-713 2 c0 -6 -4 -7 -10 -4 -5 3 -10 11 -10 16 0 6 5 7 10 4 6
-3 10 -11 10 -16z m2438 -4 c-6 -14 -13 -23 -15 -21 -5 5 15 46 22 46 3 0 -1
-11 -7 -25z m-87 -12 c-12 -20 -14 -14 -5 12 4 9 9 14 11 11 3 -2 0 -13 -6
-23z m116 5 c-3 -8 -6 -5 -6 6 -1 11 2 17 5 13 3 -3 4 -12 1 -19z m-557 -8 c0
-5 -6 -10 -14 -10 -8 0 -18 5 -21 10 -3 6 3 10 14 10 12 0 21 -4 21 -10z m430
-24 c0 -8 -43 -93 -66 -131 -17 -30 -24 -35 -24 -20 0 11 -7 29 -15 39 -28 38
-19 60 37 89 49 25 68 32 68 23z m135 -58 c-13 -58 -22 -68 -65 -68 -30 0 -40
4 -40 16 0 31 21 53 55 60 19 3 35 10 35 15 0 5 5 9 11 9 7 0 8 -12 4 -32z
m-1615 -22 c0 -3 -4 -8 -10 -11 -5 -3 -10 -1 -10 4 0 6 5 11 10 11 6 0 10 -2
10 -4z m-10 -36 c0 -5 -5 -10 -11 -10 -5 0 -7 5 -4 10 3 6 8 10 11 10 2 0 4
-4 4 -10z m1004 -22 c12 -20 -18 -70 -38 -62 -21 8 -26 40 -9 64 16 23 31 22
47 -2z m-994 -13 c11 -13 10 -14 -4 -9 -9 3 -16 10 -16 15 0 13 6 11 20 -6z
m878 -23 c-4 -19 -55 -29 -70 -14 -12 12 0 40 20 45 25 5 54 -12 50 -31z
m-827 -5 c-10 -9 -11 -8 -5 6 3 10 9 15 12 12 3 -3 0 -11 -7 -18z m1489 -49
c0 -35 -22 -108 -31 -102 -5 3 -9 -4 -9 -15 0 -11 -13 -36 -30 -54 -33 -39
-36 -53 -15 -81 8 -11 15 -30 15 -43 0 -19 -5 -23 -30 -23 -30 0 -35 8 -31 53
1 9 -3 17 -8 17 -14 0 -14 47 -1 55 6 4 10 -5 10 -20 0 -16 4 -24 11 -19 6 3
8 16 5 28 -3 11 3 48 13 81 11 33 27 86 37 117 17 56 17 57 40 41 13 -8 24
-24 24 -35z m-336 36 c9 -3 16 -12 16 -20 0 -18 14 -18 30 1 19 23 68 18 95
-9 13 -13 26 -21 29 -18 3 3 6 0 6 -6 0 -7 0 -15 0 -19 0 -5 -8 -8 -18 -9 -10
-1 -27 -6 -39 -13 -32 -16 -70 -14 -91 7 -14 14 -24 17 -42 10 -35 -13 -50 -3
-50 36 0 32 6 39 42 45 3 0 13 -2 22 -5z m-1146 -28 c-7 -8 -15 -12 -17 -11
-5 6 10 25 20 25 5 0 4 -6 -3 -14z m935 -81 c26 -26 30 -71 10 -107 -10 -18
-19 -35 -20 -36 -1 -2 -9 0 -19 6 -10 5 -12 12 -6 16 7 4 5 21 -4 52 -20 66 3
105 39 69z m-173 -3 c0 -13 -12 -22 -22 -16 -10 6 -1 24 13 24 5 0 9 -4 9 -8z
m567 -34 c-3 -7 -5 -2 -5 12 0 14 2 19 5 13 2 -7 2 -19 0 -25z m-1371 -54 c2
-15 7 -31 13 -37 7 -7 8 -3 4 12 -5 21 -5 21 26 4 19 -11 34 -29 37 -44 5 -20
11 -25 28 -22 27 5 58 -22 54 -46 -4 -20 -49 -26 -78 -11 -15 8 -19 17 -14 32
4 14 3 18 -6 13 -6 -4 -20 1 -30 10 -28 25 -62 95 -55 113 7 20 18 8 21 -24z
m1265 16 c23 -13 26 -66 4 -97 -13 -19 -23 -21 -72 -18 -32 3 -61 4 -65 5 -14
0 -8 33 9 52 9 10 24 18 33 18 9 0 27 11 40 25 27 29 25 28 51 15z m-344 -32
c-3 -8 -6 -5 -6 6 -1 11 2 17 5 13 3 -3 4 -12 1 -19z m-970 -14 c-3 -3 -12 -4
-19 -1 -8 3 -5 6 6 6 11 1 17 -2 13 -5z m986 -26 c15 -11 34 -17 42 -15 7 3
19 -1 26 -9 9 -12 6 -16 -18 -25 -17 -5 -36 -21 -43 -35 -9 -16 -16 -20 -21
-13 -4 8 -22 9 -52 5 -39 -6 -47 -4 -56 13 -17 31 -13 46 19 81 32 35 51 34
103 -2z m193 -94 c-7 -19 -76 -19 -76 0 0 29 59 52 73 28 5 -7 6 -20 3 -28z
m-2076 -104 c24 -15 8 -17 -30 -4 -30 11 -32 13 -10 13 14 1 32 -3 40 -9z
m-70 -4 c0 -2 -8 -10 -17 -17 -16 -13 -17 -12 -4 4 13 16 21 21 21 13z m76
-106 c-29 -32 -35 -46 -31 -68 3 -15 3 -22 -1 -15 -3 7 -12 9 -20 6 -15 -6
-20 12 -5 21 5 3 12 22 15 41 6 28 11 35 31 35 13 0 27 5 30 10 3 6 9 10 12
10 3 0 -11 -18 -31 -40z m-102 -33 c4 -17 3 -26 -2 -23 -6 3 -12 19 -14 36 -6
37 7 27 16 -13z m43 -62 c15 -13 25 -26 23 -28 -3 -3 -18 8 -35 24 -16 16 -26
29 -22 29 4 0 20 -11 34 -25z m1031 5 c19 0 14 -17 -8 -23 -11 -3 -18 -1 -14
4 3 5 0 9 -5 9 -6 0 -11 -5 -11 -10 0 -7 -6 -7 -20 0 -32 17 -91 15 -105 -3
-7 -9 -21 -18 -31 -18 -17 -1 -17 -2 -1 -6 9 -2 15 -8 12 -13 -3 -5 -12 -7
-19 -4 -8 3 -26 -6 -40 -21 -21 -21 -29 -24 -46 -15 -24 13 -25 29 -6 56 11
14 25 19 60 17 25 -1 46 3 46 8 0 18 45 28 110 24 36 -3 71 -5 78 -5z m-838
-9 c0 -5 -14 -14 -30 -20 -34 -11 -62 -35 -53 -44 3 -4 -9 -1 -27 6 -21 8 -27
13 -15 15 9 2 14 10 11 18 -4 10 4 14 32 14 20 0 44 5 52 10 19 12 30 13 30 1z
m886 -57 c13 -31 13 -47 2 -111 -10 -60 -14 -70 -19 -49 -13 48 -64 71 -90 40
-6 -8 -20 -14 -30 -14 -10 0 -20 -4 -23 -9 -6 -10 -53 -20 -107 -24 -46 -3
-92 22 -99 53 -3 13 -14 27 -25 31 -13 5 -1 8 38 8 31 1 57 6 57 11 0 13 37
13 45 0 4 -7 14 -6 28 1 14 8 54 10 120 6 l99 -6 -6 31 c-3 18 -14 40 -23 50
-15 17 -15 18 1 18 10 0 23 -15 32 -36z m-905 5 c-13 -11 -26 -17 -29 -14 -7
6 29 34 43 34 6 0 -1 -9 -14 -20z m-21 -180 c0 -11 -4 -17 -10 -14 -5 3 -10
13 -10 21 0 8 5 14 10 14 6 0 10 -9 10 -21z m17 -65 c-3 -3 -12 -4 -19 -1 -8
3 -5 6 6 6 11 1 17 -2 13 -5z m-457 -374 c0 -5 -7 -7 -15 -4 -8 4 -15 8 -15
10 0 2 7 4 15 4 8 0 15 -4 15 -10z m1650 3 c-1 -19 -17 -32 -38 -30 -25 1 -27
8 -10 25 13 13 48 16 48 5z m-2540 -13 c4 0 10 -9 13 -20 7 -29 -37 -39 -63
-15 -11 10 -20 22 -20 26 0 10 31 18 48 13 8 -2 17 -4 22 -4z m1041 -9 c7 -27
5 -101 -2 -101 -5 0 -9 -6 -9 -12 0 -7 -19 -34 -43 -59 -23 -26 -55 -78 -71
-115 -16 -38 -35 -82 -42 -99 -33 -76 -79 -241 -89 -322 -4 -29 -13 -57 -21
-64 -8 -6 -14 -8 -14 -3 -1 5 -9 -7 -19 -26 -18 -33 -19 -56 -2 -46 4 3 4 -18
0 -46 -13 -82 -2 -68 17 21 10 45 19 80 20 78 2 -2 6 -56 9 -120 4 -96 3 -123
-10 -148 -9 -17 -14 -33 -11 -36 3 -4 -2 -12 -12 -19 -10 -8 -12 -13 -4 -14
14 0 16 -110 3 -175 l-9 -40 -1 41 -1 41 -49 -8 c-77 -12 -120 -45 -106 -81 3
-8 -1 -39 -9 -69 -16 -59 -20 -40 -7 30 8 42 8 44 -25 63 -51 30 -43 64 8 37
18 -10 20 -9 14 6 -3 10 -2 23 3 29 10 13 45 127 43 139 -4 15 59 314 78 370
10 31 15 55 10 52 -13 -8 -33 33 -24 48 5 7 1 7 -9 -2 -10 -8 -20 -12 -22 -9
-3 3 6 11 20 18 14 7 25 17 25 22 0 4 7 8 15 8 9 0 20 10 25 23 5 12 9 16 9 9
1 -7 -6 -29 -14 -49 -18 -43 -18 -44 -2 -41 7 2 11 -6 9 -22 -2 -24 -2 -24 9
-5 20 32 33 36 41 12 5 -18 6 -16 9 13 1 19 1 49 0 65 -2 17 1 26 5 22 8 -8
35 82 35 117 0 11 5 28 11 39 7 15 7 22 -3 29 -11 8 -10 9 4 4 14 -4 17 1 17
24 0 17 5 30 10 30 6 0 10 7 10 15 0 8 5 15 10 15 6 0 10 5 10 12 0 6 -9 3
-21 -8 -20 -18 -20 -18 -14 11 6 28 6 28 -10 -5 -9 -19 -21 -42 -26 -50 -5 -8
-12 -23 -15 -32 -4 -10 -10 -18 -15 -18 -5 0 -9 -6 -9 -14 0 -22 -41 -149 -46
-143 -3 2 1 22 8 43 14 41 13 78 -3 69 -5 -4 -9 -1 -9 4 0 6 -8 11 -18 11 -10
0 -23 5 -30 12 -33 33 10 66 61 49 37 -14 53 0 82 69 19 46 93 147 152 209 35
37 40 50 21 69 -8 8 -8 15 1 26 12 14 39 12 42 -3z m41 -33 c-15 -15 -26 -4
-18 18 5 13 9 15 18 6 9 -9 9 -15 0 -24z m-977 -69 c-6 -25 -3 -29 22 -35 15
-4 31 -9 35 -11 14 -7 -4 -32 -25 -36 -20 -3 -19 -4 8 -17 17 -8 38 -22 47
-31 16 -16 16 -18 1 -30 -8 -8 -33 -13 -54 -13 -26 1 -39 -3 -39 -12 0 -17
-34 -36 -54 -28 -29 11 -39 57 -19 92 11 18 11 22 -1 22 -7 0 -19 6 -25 14
-16 20 -3 86 18 93 9 2 30 10 46 18 38 16 48 10 40 -26z m679 -55 c20 -8 21
-40 2 -47 -23 -9 -54 3 -59 23 -3 11 -2 21 1 24 7 8 36 8 56 0z m286 -44 c0
-5 -4 -10 -10 -10 -5 0 -10 5 -10 10 0 6 5 10 10 10 6 0 10 -4 10 -10z m725
-20 c10 -11 16 -20 13 -20 -3 0 -13 9 -23 20 -10 11 -16 20 -13 20 3 0 13 -9
23 -20z m-2348 -7 c4 -10 16 -25 26 -34 18 -14 18 -19 6 -52 -15 -41 -49 -53
-49 -17 0 12 -9 40 -20 62 -11 23 -20 45 -20 50 0 16 51 8 57 -9z m105 -27
c-2 -9 4 -19 12 -22 21 -8 28 -32 16 -55 -9 -16 -7 -19 10 -19 11 0 20 5 20
11 0 6 12 9 28 7 36 -4 39 -43 3 -43 -13 0 -26 -5 -28 -12 -3 -7 19 -14 64
-18 37 -4 73 -11 79 -16 8 -6 13 0 17 21 5 21 12 30 26 30 16 0 19 -7 18 -36
-2 -41 -31 -70 -46 -46 -6 10 -10 10 -20 -2 -7 -8 -25 -18 -41 -21 -16 -3 -34
-13 -41 -21 -13 -15 -59 -19 -59 -5 0 5 4 11 8 13 5 2 5 18 0 36 -7 25 -14 32
-32 32 -31 0 -54 26 -38 42 17 17 15 38 -3 38 -8 0 -15 5 -15 10 0 6 -7 10
-16 10 -13 0 -11 4 6 18 19 15 21 22 12 39 -12 21 -6 36 12 30 6 -2 10 -12 8
-21z m-225 -18 c-3 -8 -6 -5 -6 6 -1 11 2 17 5 13 3 -3 4 -12 1 -19z m607 -13
c3 -8 1 -15 -4 -15 -6 0 -10 7 -10 15 0 8 2 15 4 15 2 0 6 -7 10 -15z m1076 0
c0 -9 -53 -65 -62 -65 -5 0 3 16 18 35 23 31 44 45 44 30z m-1152 -17 c11 -11
17 -58 7 -58 -18 0 -55 26 -55 40 0 31 26 40 48 18z m480 -20 c-4 -28 -39 -36
-57 -14 -18 21 -5 36 30 36 26 0 30 -3 27 -22z m1613 5 c13 -16 12 -17 -3 -4
-10 7 -18 15 -18 17 0 8 8 3 21 -13z m-1771 -20 c0 -15 -2 -15 -24 -7 -23 9
-20 23 4 21 11 -1 20 -7 20 -14z m-775 -3 c3 -5 -1 -10 -9 -10 -9 0 -16 5 -16
10 0 6 4 10 9 10 6 0 13 -4 16 -10z m569 -46 c-38 -26 -50 -29 -58 -15 -9 14
4 41 19 41 7 0 18 7 25 15 12 14 15 14 31 -1 17 -16 17 -17 -17 -40z m136 1
c4 -22 11 -31 29 -33 13 -2 33 -13 45 -24 29 -27 63 -39 92 -32 28 7 27 6 12
39 -17 38 -1 49 52 35 38 -10 41 -14 36 -36 -4 -16 0 -33 15 -53 12 -16 18
-34 15 -40 -8 -13 -111 -7 -129 7 -15 12 -56 -2 -63 -23 -8 -19 -59 -75 -70
-75 -4 0 -15 -7 -25 -16 -21 -19 -47 -13 -56 13 -3 10 -13 26 -21 36 -14 16
-16 16 -30 -4 -9 -13 -21 -19 -33 -16 -26 7 -25 -19 1 -33 31 -16 24 -29 -25
-51 -49 -22 -55 -33 -26 -49 11 -5 29 -26 41 -46 21 -33 21 -37 6 -52 -15 -15
-19 -13 -51 18 -19 18 -43 51 -54 73 -19 38 -19 39 -1 44 10 3 21 17 25 31 3
14 17 39 31 55 13 16 24 33 24 38 0 13 -18 11 -23 -3 -4 -10 -6 -10 -6 0 -1 7
6 15 14 18 8 4 15 12 15 19 0 22 28 39 43 26 10 -8 19 -4 35 19 25 34 28 60 8
60 -21 0 -48 42 -36 54 13 13 71 34 90 32 8 -1 17 -15 20 -31z m318 13 c-3
-24 -30 -27 -55 -6 -19 15 -6 28 28 28 26 0 30 -3 27 -22z m493 -15 c-12 -20
-14 -14 -5 12 4 9 9 14 11 11 3 -2 0 -13 -6 -23z m-711 -3 c0 -5 -4 -10 -10
-10 -5 0 -10 5 -10 10 0 6 5 10 10 10 6 0 10 -4 10 -10z m1821 -27 c13 -16 12
-17 -3 -4 -17 13 -22 21 -14 21 2 0 10 -8 17 -17z m-1489 -49 c5 -40 -12 -55
-37 -34 -20 17 -19 47 3 59 26 16 30 14 34 -25z m3076 -77 c4 -21 -20 -31 -55
-22 l-28 7 25 19 c29 22 53 21 58 -4z m-3893 -29 c46 -12 46 -13 44 -53 -2
-23 1 -47 5 -54 17 -26 -4 -22 -34 7 -18 19 -46 34 -68 37 -56 10 -62 13 -62
33 0 42 36 51 115 30z m3054 -33 c23 -23 2 -71 -29 -68 -14 1 -40 3 -57 4 -19
1 -33 8 -33 15 0 7 -5 14 -11 16 -7 2 -7 12 1 32 10 28 12 28 63 22 28 -4 59
-14 66 -21z m-2244 6 c31 12 45 10 45 -5 0 -8 -10 -16 -22 -18 -16 -2 -26 -13
-33 -35 -7 -26 -14 -33 -35 -33 -32 0 -72 34 -63 56 3 8 12 13 19 10 8 -3 21
-9 29 -12 8 -3 15 -1 15 5 0 6 7 8 17 4 11 -4 14 -3 9 5 -4 7 -14 12 -22 12
-8 0 -12 5 -9 10 4 7 11 7 18 2 7 -5 21 -6 32 -1z m2334 -10 c10 -10 22 -28
26 -40 7 -22 45 -37 69 -28 8 3 18 -5 25 -19 6 -13 17 -24 24 -24 16 0 78 -71
90 -103 4 -11 3 -25 -4 -33 -10 -13 -88 -54 -102 -54 -3 0 -10 15 -15 33 -8
30 -12 32 -57 37 -40 4 -52 10 -62 30 -8 17 -9 28 -1 37 6 7 8 13 4 13 -16 0
-23 3 -56 23 -19 12 -36 21 -37 19 -2 -1 -3 1 -3 6 -1 15 50 13 56 -2 3 -9 13
-16 21 -16 16 0 11 39 -12 97 -19 46 -1 59 34 24z m-3052 -48 c-9 -9 -19 -14
-23 -11 -10 10 6 28 24 28 15 0 15 -1 -1 -17z m4017 -26 c15 -19 26 -39 26
-45 0 -24 -29 -11 -49 22 -38 61 -19 79 23 23z m-658 -32 c11 -8 41 -15 70
-15 93 0 99 -56 9 -85 -16 -5 -17 -8 -5 -16 13 -8 13 -10 0 -19 -24 -16 -74
-8 -78 13 -3 12 5 19 27 23 17 4 31 10 31 14 0 15 -36 38 -70 44 -53 10 -67
21 -51 40 17 20 41 20 67 1z m-462 -11 c3 -8 11 -12 17 -8 8 4 9 -1 4 -17 -10
-32 -6 -30 -66 -35 -64 -7 -95 10 -85 44 8 23 23 29 82 31 30 1 44 -4 48 -15z
m-3120 -9 c12 -9 17 -21 13 -35 -3 -14 3 -30 20 -48 24 -26 25 -26 55 -9 77
44 178 0 152 -67 -8 -21 -20 -20 -74 6 -25 12 -63 23 -85 24 -64 2 -117 15
-153 36 -41 25 -40 53 3 53 27 0 30 3 27 28 -3 30 12 35 42 12z m106 -14 c0
-14 -18 -23 -30 -16 -6 4 -8 11 -5 16 8 12 35 12 35 0z m3885 -1 c-3 -5 -11
-10 -16 -10 -6 0 -7 5 -4 10 3 6 11 10 16 10 6 0 7 -4 4 -10z m-301 -135 c18
-13 18 -16 2 -39 -9 -14 -16 -31 -16 -37 0 -17 -30 -49 -47 -49 -7 0 -13 9
-13 20 0 11 -7 23 -15 26 -27 11 -16 24 19 24 45 0 75 36 48 56 -9 8 -12 13
-7 13 6 0 19 -6 29 -14z m-574 -40 c10 -13 9 -15 -9 -15 -12 0 -21 6 -21 15 0
8 4 15 9 15 5 0 14 -7 21 -15z m-3250 -25 c0 -26 -46 -38 -67 -17 -22 21 -8
37 33 37 27 0 34 -4 34 -20z m780 -1 c0 -5 -4 -9 -10 -9 -5 0 -10 7 -10 16 0
8 5 12 10 9 6 -3 10 -10 10 -16z m3248 9 c-2 -6 -16 -21 -31 -32 -26 -19 -28
-19 -45 -2 -16 16 -16 18 2 32 24 17 79 19 74 2z m121 -17 c21 -13 5 -60 -24
-73 -22 -10 -29 -8 -49 11 -13 12 -26 33 -29 47 -4 23 -2 24 42 24 25 0 52 -4
60 -9z m-3407 -43 c20 -31 42 -114 33 -127 -3 -6 -15 -11 -26 -11 -14 0 -19 7
-19 29 0 16 -7 34 -15 41 -20 16 -21 90 -1 90 7 0 20 -10 28 -22z m2916 -57
c-4 -21 -69 -64 -81 -52 -5 5 0 25 12 50 20 38 23 40 46 29 15 -6 24 -18 23
-27z m-714 -3 c9 -43 2 -45 -11 -3 -6 19 -8 35 -3 35 4 0 10 -14 14 -32z
m-310 -14 c3 -8 2 -12 -4 -9 -6 3 -10 10 -10 16 0 14 7 11 14 -7z m246 -14 c0
-5 -4 -10 -8 -12 -4 -1 -5 -30 -1 -63 6 -58 14 -51 10 10 -1 28 0 27 14 -10 8
-22 22 -45 31 -52 10 -7 15 -15 13 -17 -9 -9 -68 -16 -72 -9 -3 5 -8 45 -12
91 -6 73 -5 81 9 76 9 -3 16 -10 16 -14z m210 -1 c0 -5 -4 -9 -10 -9 -5 0 -10
7 -10 16 0 8 5 12 10 9 6 -3 10 -10 10 -16z m-382 4 c-10 -2 -26 -2 -35 0 -10
3 -2 5 17 5 19 0 27 -2 18 -5z m120 -15 c4 -23 -24 -24 -32 -2 -4 11 -14 15
-31 12 -13 -3 -22 -1 -19 4 11 17 79 5 82 -14z m676 8 c-12 -30 -74 -30 -74 0
0 10 12 14 40 14 30 0 38 -3 34 -14z m-859 -25 c3 -5 1 -12 -5 -16 -5 -3 -10
1 -10 9 0 18 6 21 15 7z m59 -22 c3 -17 6 -44 6 -60 0 -16 5 -29 11 -29 5 0 8
-4 5 -9 -3 -5 -17 -8 -32 -8 -18 0 -22 2 -13 8 13 8 14 71 3 112 -3 9 -1 17 4
17 5 0 12 -14 16 -31z m91 -5 c30 5 45 -12 45 -54 0 -36 -2 -38 -36 -45 -43
-8 -78 15 -56 37 9 9 15 9 24 0 19 -19 50 -15 46 6 -2 11 -15 19 -38 22 -32 5
-35 8 -38 40 l-3 35 18 -22 c11 -13 26 -21 38 -19z m490 5 c22 -10 34 -18 26
-18 -8 -1 -29 -12 -47 -26 -47 -36 -58 -33 -50 15 5 32 3 40 -9 40 -8 0 -15 5
-15 10 0 12 39 4 95 -21z m-2320 1 c0 -9 -11 -16 -28 -18 -20 -3 -31 -12 -42
-38 -16 -39 -40 -45 -49 -11 -10 39 -7 46 37 66 48 22 82 23 82 1z m3275 -57
c0 -16 0 -16 -41 1 -19 7 -42 16 -53 20 -14 5 -16 9 -6 21 20 24 53 23 77 -5
12 -14 22 -31 23 -37z m-1251 -3 c0 -22 -2 -21 -14 10 -18 47 -18 58 0 34 8
-10 14 -30 14 -44z m-1894 30 c0 -8 -7 -16 -15 -17 -22 -4 -44 13 -35 26 10
17 50 9 50 -9z m242 -37 c-3 -10 -5 -2 -5 17 0 19 2 27 5 18 2 -10 2 -26 0
-35z m2111 -14 c-4 -28 -39 -37 -57 -16 -16 19 -4 45 22 49 29 5 39 -5 35 -33z
m552 -17 c0 -18 -59 -62 -83 -62 -7 0 -22 -6 -33 -14 -15 -12 -17 -17 -6 -27
6 -7 12 -20 12 -29 0 -19 -53 -70 -74 -70 -24 0 -40 31 -41 78 -1 25 -6 47
-11 49 -5 2 -32 -3 -59 -12 -42 -12 -52 -12 -64 -1 -19 20 -6 35 56 62 62 28
90 24 99 -12 8 -31 23 -27 49 13 11 17 38 40 59 51 36 19 42 19 68 6 15 -8 28
-22 28 -32z m-3378 4 c15 -21 15 -26 3 -42 -8 -11 -15 -33 -15 -50 0 -43 -31
-78 -81 -93 -38 -12 -44 -11 -62 8 -17 17 -18 22 -7 36 21 26 69 47 90 40 38
-12 41 6 8 47 l-32 41 23 18 c31 25 52 23 73 -5z m194 -6 c20 0 33 -4 30 -9
-8 -13 -105 -43 -116 -36 -26 16 8 60 38 50 8 -3 29 -5 48 -5z m-387 -9 c12
-8 12 -12 2 -25 -15 -18 -37 -21 -46 -6 -7 11 11 40 24 40 3 0 12 -4 20 -9z
m2578 -43 c-3 -8 -6 -5 -6 6 -1 11 2 17 5 13 3 -3 4 -12 1 -19z m-2655 1 c17
-9 19 -17 14 -50 -5 -31 -2 -42 14 -57 l21 -19 -33 -21 c-18 -12 -45 -31 -61
-44 -19 -16 -30 -19 -38 -11 -18 18 0 54 32 65 39 13 34 38 -11 60 -19 9 -39
17 -43 18 -14 0 -25 -44 -15 -64 8 -14 5 -23 -10 -38 -19 -19 -22 -19 -43 -4
-13 9 -33 16 -46 16 -36 0 -38 20 -4 52 17 16 31 33 31 38 0 11 68 56 96 63
35 9 75 7 96 -4z m2758 -23 c-5 -5 -16 -6 -26 -2 -16 6 -16 8 2 20 14 11 21
11 26 3 4 -7 3 -16 -2 -21z m-3214 -11 c-20 -15 -36 -19 -36 -10 0 5 38 23 50
24 3 0 -4 -6 -14 -14z m3415 3 c22 2 41 -4 49 -12 19 -24 2 -39 -38 -32 -27 4
-40 0 -58 -17 -13 -12 -24 -29 -24 -38 0 -8 -6 -23 -13 -33 -18 -24 -57 -13
-57 15 0 11 -4 29 -10 39 -5 10 -8 25 -5 32 8 20 87 58 105 51 8 -4 31 -5 51
-5z m799 -39 c18 -33 4 -66 -36 -85 -30 -15 -37 -15 -45 -3 -14 23 -11 40 17
76 29 38 49 42 64 12z m-1083 -11 c-3 -8 -6 -5 -6 6 -1 11 2 17 5 13 3 -3 4
-12 1 -19z m571 -14 c28 -20 28 -42 -1 -55 -34 -15 -77 4 -77 34 0 13 3 27 7
30 11 12 48 7 71 -9z m-2887 -29 c1 -16 -16 -16 -36 0 -19 15 -19 15 8 13 15
-2 28 -7 28 -13z m2326 -17 c-3 -8 -6 -5 -6 6 -1 11 2 17 5 13 3 -3 4 -12 1
-19z m10 -50 c-3 -8 -6 -5 -6 6 -1 11 2 17 5 13 3 -3 4 -12 1 -19z m-1960 -30
c-3 -7 -5 -2 -5 12 0 14 2 19 5 13 2 -7 2 -19 0 -25z m-933 -8 c11 -11 16 -25
13 -34 -6 -14 -19 -16 -78 -13 -46 3 -74 9 -80 18 -12 19 -11 25 4 37 31 26
110 21 141 -8z m2982 -5 c68 5 99 -6 66 -24 -11 -6 -28 -11 -36 -11 -8 0 -20
-8 -25 -19 -6 -10 -22 -22 -37 -25 -26 -7 -26 -7 -19 -79 10 -107 -1 -78 -15
37 -6 54 -13 107 -15 118 -3 15 -1 17 9 9 7 -6 38 -8 72 -6z m-2808 -48 c4
-50 -9 -64 -60 -63 -34 1 -42 4 -40 18 1 9 -2 19 -8 23 -5 3 -10 14 -10 24 0
21 43 40 85 38 27 -2 30 -6 33 -40z m3992 -2 c0 -19 -5 -25 -21 -25 -11 0 -18
3 -16 8 2 4 7 15 10 25 9 26 27 21 27 -8z m-55 -76 c9 -13 3 -19 -24 -24 -12
-2 -21 1 -21 9 0 25 32 36 45 15z m-450 -9 c-3 -5 -10 -10 -16 -10 -5 0 -9 5
-9 10 0 6 7 10 16 10 8 0 12 -4 9 -10z m-514 -25 c1 -16 -81 -39 -93 -27 -7 7
-1 15 18 26 31 17 74 17 75 1z m479 -4 c0 -6 -4 -13 -10 -16 -5 -3 -10 1 -10
9 0 9 5 16 10 16 6 0 10 -4 10 -9z m-3409 -17 c9 -11 22 -14 46 -9 28 5 33 3
33 -14 0 -11 -7 -27 -16 -36 -15 -15 -15 -18 7 -41 18 -19 20 -27 11 -36 -10
-10 -19 -8 -45 5 -69 38 -127 87 -127 108 0 16 5 20 20 16 10 -3 24 1 31 9 15
18 24 18 40 -2z m3704 0 c11 -11 13 -20 6 -27 -12 -12 -41 8 -41 29 0 19 15
18 35 -2z m-487 -6 c16 -16 15 -48 -2 -48 -20 0 -39 27 -32 45 7 18 18 19 34
3z m-491 -70 c-3 -8 -6 -5 -6 6 -1 11 2 17 5 13 3 -3 4 -12 1 -19z m243 5 c0
-3 -7 -15 -17 -25 -17 -19 -63 -25 -63 -8 0 6 0 13 0 18 -1 6 17 11 73 21 4 0
7 -2 7 -6z m293 -37 c23 -17 22 -22 -8 -42 -21 -14 -27 -14 -44 -2 -20 14 -20
16 -3 36 20 25 30 27 55 8z m-526 -28 c-3 -7 -5 -2 -5 12 0 14 2 19 5 13 2 -7
2 -19 0 -25z m353 13 c0 -5 -7 -11 -15 -15 -9 -3 -15 0 -15 9 0 8 7 15 15 15
8 0 15 -4 15 -9z m-343 -73 c-3 -7 -5 -2 -5 12 0 14 2 19 5 13 2 -7 2 -19 0
-25z m-2968 4 c55 -18 80 -42 42 -42 -19 0 -149 45 -160 55 -11 11 69 2 118
-13z m3025 -98 c36 -36 44 -41 61 -31 35 19 125 3 125 -23 0 -21 -34 -42 -59
-36 -14 3 -39 8 -56 11 -16 3 -31 9 -33 14 -2 6 -16 8 -32 5 -34 -7 -45 9 -53
81 -3 28 -3 44 0 36 3 -8 24 -33 47 -57z m1144 22 c38 -36 44 -46 34 -59 -10
-12 -18 -12 -47 -3 -19 7 -38 15 -41 19 -16 16 -35 5 -51 -30 -20 -43 -67 -71
-92 -56 -24 15 -32 62 -16 99 13 31 18 34 54 34 28 0 48 7 61 20 29 29 46 25
98 -24z m-1171 -138 c-3 -7 -5 -2 -5 12 0 14 2 19 5 13 2 -7 2 -19 0 -25z
m-2415 -23 c-3 -13 -35 -21 -149 -40 -107 -17 -179 -19 -188 -5 -3 6 -25 10
-47 10 -23 0 -39 2 -37 4 4 4 114 20 244 36 82 10 181 7 177 -5z m3066 -7 c4
-19 -62 -73 -78 -63 -17 10 -12 25 20 57 31 31 53 33 58 6z m-568 -26 c0 -4
-7 -17 -15 -29 -18 -25 -55 -37 -55 -17 0 8 5 14 10 14 6 0 10 6 10 14 0 14
14 24 38 25 6 1 12 -2 12 -7z m813 -38 c25 -34 14 -45 -41 -38 -68 8 -76 30
-20 58 28 15 38 12 61 -20z m-3755 -34 c28 -17 52 -37 52 -45 0 -8 -4 -15 -9
-15 -19 0 -181 72 -181 81 0 21 86 8 138 -21z m3888 -7 c5 -17 3 -28 -4 -31
-7 -2 -12 -12 -12 -23 0 -10 -6 -19 -14 -19 -10 0 -14 12 -14 38 0 59 32 85
44 35z m-522 1 c9 -8 16 -20 16 -26 0 -7 16 -8 45 -4 36 6 45 4 45 -8 0 -20
-28 -46 -49 -46 -10 0 -23 11 -30 24 -12 21 -18 23 -55 19 -22 -3 -56 -12 -75
-19 -40 -16 -51 -17 -51 -4 0 25 82 79 122 80 9 0 24 -7 32 -16z m-487 -16
c-3 -8 -6 -5 -6 6 -1 11 2 17 5 13 3 -3 4 -12 1 -19z m1163 -43 c0 -8 -10 -20
-22 -26 -13 -7 -28 -19 -35 -28 -10 -14 -12 -14 -19 3 -5 14 -1 24 17 37 13
11 29 23 34 28 13 11 25 4 25 -14z m-932 -45 c-24 -33 -45 -39 -54 -15 -9 23
15 45 48 45 l29 0 -23 -30z m-211 -92 c-3 -8 -6 -5 -6 6 -1 11 2 17 5 13 3 -3
4 -12 1 -19z m861 -23 c-1 -57 -14 -75 -58 -79 -19 -2 -47 -7 -62 -11 -34 -9
-78 1 -78 18 0 18 117 88 135 81 6 -3 20 4 30 16 27 30 34 25 33 -25z m-814
-39 c3 -13 -3 -50 -13 -82 -18 -56 -19 -57 -20 -23 -1 20 -4 57 -7 83 -6 42
-5 46 14 46 13 0 22 -9 26 -24z m966 -96 c0 -5 -4 -10 -10 -10 -5 0 -10 5 -10
10 0 6 5 10 10 10 6 0 10 -4 10 -10z m-183 -46 c-12 -13 -37 6 -37 28 l0 22
22 -21 c12 -13 19 -25 15 -29z m-434 -108 c3 -12 -30 -32 -39 -24 -11 12 5 40
21 36 9 -2 17 -7 18 -12z m387 -61 c0 -8 -4 -15 -10 -15 -5 0 -10 7 -10 15 0
8 5 15 10 15 6 0 10 -7 10 -15z"/>
<path d="M1590 2625 c0 -5 5 -17 10 -25 5 -8 10 -10 10 -5 0 6 -5 17 -10 25
-5 8 -10 11 -10 5z"/>
<path d="M1570 2591 c0 -6 4 -13 10 -16 6 -3 7 1 4 9 -7 18 -14 21 -14 7z"/>
<path d="M1466 2105 c-9 -26 -7 -32 5 -12 6 10 9 21 6 23 -2 3 -7 -2 -11 -11z"/>
<path d="M1421 1873 c-1 -6 -4 -20 -7 -30 -5 -17 -5 -17 6 0 6 10 9 23 6 30
-3 9 -5 9 -5 0z"/>
<path d="M1343 1748 c2 -30 5 -33 31 -31 17 1 36 -3 43 -9 17 -14 16 2 -1 25
-12 15 -15 15 -26 2 -20 -24 -38 -18 -44 15 -6 30 -6 30 -3 -2z"/>
<path d="M3716 2083 c-10 -10 -7 -43 4 -43 5 0 14 9 19 19 8 14 7 20 -3 24 -8
3 -17 3 -20 0z"/>
<path d="M588 673 c7 -3 16 -2 19 1 4 3 -2 6 -13 5 -11 0 -14 -3 -6 -6z"/>
<path d="M2526 4573 c10 -40 13 -43 37 -43 32 0 49 14 52 44 3 25 1 26 -46 26
-49 0 -49 0 -43 -27z"/>
<path d="M3698 4593 c7 -3 16 -2 19 1 4 3 -2 6 -13 5 -11 0 -14 -3 -6 -6z"/>
<path d="M3355 4420 c-3 -6 1 -7 9 -4 18 7 21 14 7 14 -6 0 -13 -4 -16 -10z"/>
<path d="M985 4410 c-3 -5 1 -10 10 -10 9 0 13 5 10 10 -3 6 -8 10 -10 10 -2
0 -7 -4 -10 -10z"/>
<path d="M3035 4350 c-3 -5 -1 -10 4 -10 6 0 11 5 11 10 0 6 -2 10 -4 10 -3 0
-8 -4 -11 -10z"/>
<path d="M353 4232 c-6 -10 -26 -22 -43 -25 -28 -6 -31 -10 -28 -36 3 -32 -23
-68 -59 -82 -15 -5 -23 -17 -23 -32 0 -13 -7 -39 -16 -56 l-16 -33 -29 31
c-35 38 -43 39 -36 3 6 -27 -11 -103 -25 -117 -4 -4 -2 -18 4 -31 9 -20 8 -27
-10 -43 -12 -10 -22 -23 -22 -30 0 -6 -11 -11 -25 -11 -20 0 -25 -5 -25 -25 0
-19 5 -25 18 -23 18 3 20 -12 7 -44 -6 -14 -2 -18 16 -19 13 0 36 -2 50 -4 24
-3 27 1 48 73 31 106 69 202 91 232 16 21 21 23 44 12 29 -13 41 -3 31 28 -4
12 2 27 17 42 12 12 23 29 23 38 0 9 13 17 35 20 32 5 37 2 58 -33 17 -27 22
-46 17 -66 -4 -19 -1 -32 10 -41 10 -8 15 -9 15 -2 0 6 7 9 15 6 8 -4 15 -15
15 -26 0 -11 16 -36 36 -56 33 -33 35 -37 18 -49 -10 -7 -24 -13 -31 -13 -8 0
-13 -13 -13 -36 0 -35 1 -36 28 -29 65 16 92 17 92 4 0 -10 3 -10 11 -2 18 18
3 46 -20 38 -16 -5 -18 -2 -14 15 6 23 43 28 43 6 0 -31 21 -26 35 8 13 31 13
39 1 59 -8 12 -17 47 -21 77 -9 65 -41 126 -104 195 -25 28 -50 59 -56 68 -7
12 -29 19 -80 23 -62 5 -71 4 -82 -14z m311 -324 c-7 -10 -34 -10 -34 0 0 4 5
13 12 20 9 9 14 9 19 0 4 -7 5 -16 3 -20z"/>
<path d="M3460 4115 c0 -8 8 -11 20 -8 11 3 20 7 20 8 0 1 -9 5 -20 8 -12 3
-20 0 -20 -8z"/>
<path d="M2556 4113 c-4 -5 -38 -8 -76 -8 -58 0 -72 -4 -93 -23 -27 -25 -64
-99 -54 -108 3 -3 23 7 44 24 39 30 93 50 93 33 0 -5 -23 -20 -50 -32 -28 -12
-49 -27 -48 -33 0 -6 -3 -19 -7 -30 -10 -22 6 -52 26 -49 8 1 25 5 39 8 20 6
22 5 10 -5 -13 -10 -13 -11 0 -7 8 2 14 12 12 21 -3 19 27 34 37 19 12 -20 51
-25 57 -9 8 20 24 21 24 1 0 -8 -6 -15 -12 -15 -9 0 -8 -4 2 -11 11 -8 6 -9
-21 -7 -24 2 -36 -1 -36 -9 0 -20 96 -18 103 2 4 8 10 12 15 9 5 -3 6 1 3 9
-3 8 1 21 9 29 8 8 18 28 22 46 3 17 11 34 16 38 6 3 0 14 -12 25 -12 10 -19
19 -15 19 4 0 -9 16 -28 35 -37 36 -47 40 -60 28z m-47 -133 c-14 -4 -39 -15
-55 -25 l-29 -17 30 26 c17 14 41 26 55 25 l25 -1 -26 -8z"/>
<path d="M1386 4021 c-4 -5 3 -7 14 -4 23 6 26 13 6 13 -8 0 -17 -4 -20 -9z"/>
<path d="M4 3966 c-10 -27 2 -43 14 -19 8 14 9 24 2 28 -6 3 -13 -1 -16 -9z"/>
<path d="M2475 3890 c-3 -5 -1 -10 4 -10 6 0 11 5 11 10 0 6 -2 10 -4 10 -3 0
-8 -4 -11 -10z"/>
<path d="M313 3861 c-13 -36 -8 -43 23 -29 26 12 30 23 14 33 -6 4 -8 11 -5
16 4 5 0 9 -7 9 -8 0 -19 -13 -25 -29z"/>
<path d="M2860 3798 c0 -4 -10 -6 -23 -3 -16 4 -34 -3 -61 -24 -21 -17 -44
-31 -50 -31 -21 0 -36 -22 -26 -40 6 -11 24 -17 57 -19 32 -1 54 -9 66 -22 18
-20 53 -27 42 -9 -4 6 7 26 24 46 32 36 35 44 25 81 -6 20 -54 40 -54 21z"/>
<path d="M1235 3760 c-3 -5 1 -10 9 -10 9 0 16 5 16 10 0 6 -4 10 -9 10 -6 0
-13 -4 -16 -10z"/>
<path d="M439 3724 c-11 -14 -10 -19 10 -36 26 -20 58 -20 54 0 -2 7 -4 18 -5
25 -6 29 -39 35 -59 11z"/>
<path d="M2162 3660 c0 -14 2 -19 5 -12 2 6 2 18 0 25 -3 6 -5 1 -5 -13z"/>
<path d="M1 3572 c-1 -90 0 -93 24 -104 21 -9 29 -9 41 4 14 14 13 17 -14 29
-25 11 -49 46 -39 55 1 1 31 -7 66 -18 53 -16 65 -24 74 -49 9 -22 18 -29 38
-29 15 0 34 -6 41 -13 7 -7 21 -16 31 -20 10 -4 17 -15 15 -24 -2 -14 3 -17
26 -15 18 2 36 -4 50 -17 11 -11 33 -23 49 -26 15 -4 34 -16 41 -27 16 -23 79
-29 98 -10 22 22 -11 66 -52 72 -29 4 -35 10 -41 36 -9 45 -17 54 -48 54 -22
0 -34 9 -56 44 -21 33 -41 51 -76 65 -25 11 -49 28 -53 37 -5 13 -20 15 -100
10 -89 -5 -94 -5 -104 17 -8 17 -11 3 -11 -71z"/>
<path d="M1276 3604 c-4 -10 -1 -14 6 -12 15 5 23 28 10 28 -5 0 -13 -7 -16
-16z"/>
<path d="M1020 3595 c0 -9 5 -15 11 -13 6 2 11 8 11 13 0 5 -5 11 -11 13 -6 2
-11 -4 -11 -13z"/>
<path d="M763 3576 c-17 -8 -21 -16 -17 -31 4 -11 8 -22 10 -24 7 -8 31 22 39
47 7 24 2 25 -32 8z"/>
<path d="M2560 3555 c-22 -26 -5 -37 18 -11 15 18 18 26 8 26 -7 0 -19 -7 -26
-15z"/>
<path d="M473 3553 c-19 -7 -16 -40 4 -47 22 -9 36 7 28 33 -6 21 -11 23 -32
14z"/>
<path d="M920 3526 c0 -17 22 -26 61 -26 16 0 29 -5 29 -11 0 -5 5 -7 10 -4
18 11 11 22 -24 39 -42 20 -76 21 -76 2z"/>
<path d="M27 3386 c-34 -12 -35 -44 -3 -68 21 -15 26 -16 36 -3 18 21 22 72 7
77 -7 3 -24 0 -40 -6z"/>
<path d="M190 3370 c0 -5 5 -10 10 -10 6 0 10 5 10 10 0 6 -4 10 -10 10 -5 0
-10 -4 -10 -10z"/>
<path d="M1430 3366 c0 -8 5 -18 11 -21 6 -4 8 -13 5 -21 -3 -8 -1 -14 4 -14
14 0 32 39 26 56 -7 18 -46 18 -46 0z"/>
<path d="M1004 3353 c2 -10 7 -28 11 -40 6 -23 -17 -43 -52 -43 -23 0 -56 -37
-49 -56 9 -22 41 -16 62 11 19 25 44 34 44 15 0 -5 5 -10 10 -10 6 0 10 6 10
13 0 14 37 40 48 33 5 -3 14 -1 21 3 10 7 11 13 1 31 -11 20 -10 22 4 17 10
-4 15 -3 12 2 -3 5 -26 12 -51 15 -24 4 -47 11 -50 17 -10 16 -27 10 -21 -8z"/>
<path d="M4290 3256 c0 -41 5 -78 10 -81 6 -3 10 -2 10 4 0 5 7 16 15 24 24
24 30 91 10 110 -35 35 -45 22 -45 -57z"/>
<path d="M230 3304 c0 -4 12 -32 26 -62 23 -49 27 -53 37 -36 15 27 34 44 49
44 16 0 -57 45 -89 54 -13 4 -23 4 -23 0z"/>
<path d="M100 3250 c-22 -44 -26 -90 -9 -107 7 -7 9 -19 6 -27 -7 -18 -42 -22
-52 -6 -3 6 -11 10 -17 10 -13 0 20 -38 44 -51 10 -5 29 -7 42 -3 21 5 24 10
20 34 -5 22 -2 28 17 33 15 4 30 1 39 -8 13 -14 11 -18 -13 -41 -42 -39 -44
-38 75 -19 28 4 37 11 40 28 2 14 10 22 23 22 15 0 21 -8 23 -32 2 -24 8 -33
21 -33 10 0 25 -9 32 -19 8 -12 28 -21 49 -23 33 -3 35 -1 36 29 1 40 19 63
50 63 13 0 24 5 24 10 0 15 -43 30 -55 19 -18 -17 -50 -9 -83 22 -19 18 -37
27 -44 23 -20 -13 -61 -14 -75 -2 -9 7 -17 7 -28 -2 -9 -7 -17 -11 -18 -9 -50
74 -65 94 -85 110 -34 26 -39 25 -62 -21z"/>
<path d="M1440 3257 c0 -14 -3 -34 -6 -44 -4 -14 -1 -12 16 6 22 26 23 52 3
59 -8 2 -13 -6 -13 -21z"/>
<path d="M4441 3215 c-33 -36 -65 -65 -71 -65 -17 0 -11 -18 10 -33 22 -15 19
-42 -7 -51 -22 -9 -45 13 -38 35 4 11 1 19 -5 19 -7 0 -9 7 -5 18 3 10 -8 3
-27 -15 -19 -18 -41 -33 -50 -33 -18 0 -32 26 -29 53 2 18 -24 24 -34 7 -3 -5
-13 -10 -22 -10 -24 0 -95 -81 -89 -102 2 -10 -1 -24 -8 -31 -21 -20 -37 -57
-31 -67 8 -14 45 6 45 24 0 17 30 30 42 18 8 -8 -13 -109 -27 -133 -4 -6 -18
-14 -30 -19 -28 -11 -60 -55 -50 -70 11 -18 49 -11 88 15 20 14 42 23 47 20
13 -8 13 -42 0 -50 -17 -11 -12 -73 8 -87 25 -18 36 -50 20 -59 -10 -6 -10
-11 -1 -20 9 -9 16 0 32 34 12 25 21 51 21 57 0 7 7 26 14 43 20 44 36 187 23
208 -8 13 -5 24 11 44 12 15 22 33 22 40 0 24 38 23 59 -1 12 -13 25 -24 31
-24 16 0 12 -37 -5 -44 -12 -4 -13 -20 -9 -83 5 -66 3 -86 -15 -126 -22 -50
-27 -112 -12 -136 6 -9 18 -11 35 -7 15 4 24 11 21 15 -3 5 3 7 13 4 14 -3 17
-11 14 -35 -7 -47 21 -30 30 18 3 21 13 53 22 69 9 17 16 40 16 53 0 12 4 22
10 22 5 0 7 7 4 15 -6 16 12 45 27 45 14 0 10 -38 -7 -71 -30 -58 -3 -103 28
-48 10 17 22 27 28 24 6 -4 10 27 10 88 0 69 -3 95 -12 94 -59 -2 -98 25 -98
67 0 13 -11 40 -25 60 -14 20 -25 43 -25 50 0 14 46 50 77 60 12 4 27 13 33
21 7 8 21 15 31 15 16 0 19 8 19 45 0 36 -3 45 -17 45 -10 0 -29 9 -43 20 -14
11 -28 20 -31 20 -4 0 -34 -29 -68 -65z m-242 -94 c21 -13 6 -61 -19 -61 -15
0 -20 7 -20 28 0 40 12 50 39 33z"/>
<path d="M1209 3248 c-9 -17 -9 -24 3 -32 8 -6 17 -19 21 -28 8 -24 19 -23 35
3 11 18 11 24 -2 38 -9 10 -16 23 -16 29 0 20 -29 13 -41 -10z"/>
<path d="M610 3218 c0 -18 12 -34 30 -40 9 -3 15 -17 15 -34 0 -38 31 -45 56
-13 25 32 24 39 -5 39 -15 0 -34 12 -49 30 -27 31 -47 39 -47 18z"/>
<path d="M1130 3200 c0 -5 7 -10 15 -10 8 0 15 5 15 10 0 6 -7 10 -15 10 -8 0
-15 -4 -15 -10z"/>
<path d="M1534 3195 c-11 -27 4 -45 36 -45 19 0 34 -7 42 -20 17 -26 28 -25
28 3 0 32 -9 41 -58 60 -37 15 -43 15 -48 2z"/>
<path d="M3780 3140 c0 -5 5 -10 11 -10 5 0 7 5 4 10 -3 6 -8 10 -11 10 -2 0
-4 -4 -4 -10z"/>
<path d="M997 3120 c-3 -11 -2 -22 3 -25 11 -7 33 22 25 35 -10 16 -22 12 -28
-10z"/>
<path d="M1350 3090 c0 -5 -7 -10 -15 -10 -22 0 -18 -18 5 -25 11 -3 20 -10
20 -15 0 -10 57 -40 75 -40 7 0 18 7 25 15 11 13 7 21 -26 50 -37 32 -84 47
-84 25z"/>
<path d="M1210 3060 c19 -13 30 -13 30 0 0 6 -10 10 -22 10 -19 0 -20 -2 -8
-10z"/>
<path d="M2966 3040 c-10 -10 -15 -24 -11 -30 4 -7 15 -2 31 15 13 14 24 28
24 31 0 11 -27 1 -44 -16z"/>
<path d="M3555 3029 c-4 -11 -4 -23 -1 -26 8 -9 47 28 40 38 -10 16 -33 9 -39
-12z"/>
<path d="M250 3016 c0 -7 9 -25 21 -40 16 -20 17 -26 6 -26 -8 0 -20 -6 -26
-13 -8 -11 -6 -18 10 -33 21 -19 22 -19 15 2 -4 14 1 27 19 44 l25 23 0 -21
c0 -17 6 -22 26 -22 14 0 23 4 19 10 -3 6 -13 10 -20 10 -18 0 -36 62 -21 72
6 4 -8 8 -31 8 -30 0 -43 -4 -43 -14z"/>
<path d="M2755 3010 c-3 -5 -1 -10 4 -10 6 0 11 5 11 10 0 6 -2 10 -4 10 -3 0
-8 -4 -11 -10z"/>
<path d="M1850 2990 c-18 -6 -7 -8 40 -9 77 -1 242 -41 309 -75 26 -14 73 -46
105 -71 31 -26 59 -45 62 -42 7 7 -74 74 -136 112 -91 55 -315 105 -380 85z"/>
<path d="M4580 2990 c0 -5 5 -10 10 -10 6 0 10 5 10 10 0 6 -4 10 -10 10 -5 0
-10 -4 -10 -10z"/>
<path d="M25 2960 c4 -6 11 -8 16 -5 14 9 11 15 -7 15 -8 0 -12 -5 -9 -10z"/>
<path d="M1101 2959 c-14 -6 -31 -7 -38 -5 -21 8 -63 -12 -63 -30 0 -9 -10
-24 -22 -34 -17 -14 -20 -21 -12 -30 9 -9 18 -8 38 5 26 17 27 17 46 -8 18
-22 28 -26 73 -25 28 1 58 7 64 14 15 15 17 28 3 19 -6 -3 -13 1 -16 9 -3 9
-12 16 -20 16 -18 0 -18 10 2 24 13 10 12 14 -8 33 -18 16 -28 19 -47 12z"/>
<path d="M170 2900 c0 -5 -12 -13 -27 -16 -23 -6 -24 -8 -10 -19 17 -12 63 -9
72 5 8 13 -6 40 -21 40 -8 0 -14 -4 -14 -10z"/>
<path d="M2905 2900 c-10 -17 5 -30 34 -30 34 0 44 9 30 27 -13 15 -55 18 -64
3z"/>
<path d="M3674 2884 c3 -9 6 -18 6 -20 0 -2 4 -4 9 -4 5 0 7 9 4 20 -3 11 -10
20 -15 20 -6 0 -7 -7 -4 -16z"/>
<path d="M3980 2890 c0 -5 7 -10 15 -10 8 0 15 5 15 10 0 6 -7 10 -15 10 -8 0
-15 -4 -15 -10z"/>
<path d="M3764 2875 c-4 -8 -12 -15 -18 -15 -7 0 -19 -11 -26 -25 -7 -14 -17
-26 -22 -26 -4 -1 -13 -2 -20 -3 -6 0 -13 -7 -15 -13 -6 -18 51 -17 66 1 6 7
24 16 39 19 18 4 31 15 38 36 7 16 9 32 6 35 -11 12 -43 6 -48 -9z"/>
<path d="M342 2848 c-20 -20 -14 -38 13 -38 15 0 29 8 36 21 8 16 8 20 0 14
-7 -4 -18 -2 -25 4 -9 7 -16 7 -24 -1z"/>
<path d="M165 2790 c-4 -6 7 -10 27 -10 25 0 29 3 18 10 -19 13 -37 13 -45 0z"/>
<path d="M3877 2749 c-18 -10 -18 -11 0 -25 27 -21 43 -17 43 11 0 27 -14 31
-43 14z"/>
<path d="M3750 2734 c0 -9 5 -14 12 -12 18 6 21 28 4 28 -9 0 -16 -7 -16 -16z"/>
<path d="M2445 2701 c-3 -6 3 -9 14 -8 11 0 17 5 15 9 -7 11 -22 10 -29 -1z"/>
<path d="M4554 2605 c-8 -20 21 -54 35 -40 6 6 2 19 -10 34 -17 20 -20 21 -25
6z"/>
<path d="M4449 2512 c-14 -12 -18 -21 -11 -26 6 -3 16 3 22 14 6 11 15 18 21
15 5 -4 9 -1 9 4 0 16 -15 13 -41 -7z"/>
<path d="M3585 2470 c3 -5 8 -10 11 -10 2 0 4 5 4 10 0 6 -5 10 -11 10 -5 0
-7 -4 -4 -10z"/>
<path d="M4220 2460 c0 -15 5 -20 18 -18 9 2 17 10 17 18 0 8 -8 16 -17 18
-13 2 -18 -3 -18 -18z"/>
<path d="M2858 2379 c-16 -9 -17 -13 -3 -39 11 -21 20 -27 35 -23 24 6 26 35
4 57 -8 9 -16 16 -17 16 -1 0 -10 -5 -19 -11z"/>
<path d="M2982 2299 c2 -7 10 -15 17 -17 8 -3 12 1 9 9 -2 7 -10 15 -17 17 -8
3 -12 -1 -9 -9z"/>
<path d="M2910 2274 c0 -8 5 -12 10 -9 6 4 8 11 5 16 -9 14 -15 11 -15 -7z"/>
<path d="M3750 2260 c-13 -9 -13 -11 0 -20 21 -14 55 -8 55 10 0 18 -34 24
-55 10z"/>
<path d="M1276 1223 c6 -4 14 -15 17 -23 5 -11 6 -9 4 4 -1 11 -9 21 -17 23
-10 3 -11 2 -4 -4z"/>
<path d="M1286 755 c-3 -8 -1 -15 4 -15 6 0 10 7 10 15 0 8 -2 15 -4 15 -2 0
-6 -7 -10 -15z"/>
<path d="M1340 725 c-8 -10 -5 -14 16 -19 33 -9 35 -5 13 16 -14 14 -20 14
-29 3z"/>
<path d="M0 560 c0 -27 2 -28 81 -40 45 -6 83 -10 85 -7 2 2 -34 20 -81 39
l-85 36 0 -28z"/>
<path d="M0 430 c0 -42 5 -71 13 -78 6 -5 46 -10 88 -9 l77 0 53 47 53 47 -95
21 c-51 12 -115 26 -141 31 l-48 8 0 -67z"/>
<path d="M1191 364 c0 -11 3 -14 6 -6 3 7 2 16 -1 19 -3 4 -6 -2 -5 -13z"/>
<path d="M1181 324 c0 -11 3 -14 6 -6 3 7 2 16 -1 19 -3 4 -6 -2 -5 -13z"/>
<path d="M1313 253 c-24 -84 -24 -103 2 -53 15 28 33 130 24 130 -2 0 -14 -35
-26 -77z"/>
<path d="M0 282 c0 -4 10 -12 21 -17 12 -6 21 -14 20 -20 -2 -5 6 -12 16 -16
39 -16 45 -8 15 20 -19 19 -26 32 -19 35 7 2 -3 5 -20 5 -18 1 -33 -2 -33 -7z"/>
<path d="M1127 263 c-3 -4 1 -19 9 -33 12 -22 13 -23 13 -5 1 24 -14 50 -22
38z"/>
<path d="M1177 209 c-3 -12 -10 -18 -17 -14 -7 4 -6 -1 2 -14 13 -21 13 -20
21 10 5 17 6 33 4 35 -3 3 -7 -5 -10 -17z"/>
<path d="M1240 217 c0 -8 -11 -35 -25 -62 -27 -54 -21 -75 22 -75 22 0 24 2
13 15 -9 10 -11 35 -7 75 3 33 3 60 1 60 -2 0 -4 -6 -4 -13z"/>
<path d="M0 100 l0 -100 29 0 c24 0 28 3 24 20 -3 11 -9 20 -13 20 -18 0 -18
41 1 50 15 9 17 8 12 -6 -5 -14 -1 -15 28 -9 54 12 63 24 37 49 -13 12 -33 34
-45 49 -14 16 -33 27 -48 27 l-25 0 0 -100z"/>
<path d="M130 155 c7 -9 15 -13 17 -11 7 7 -7 26 -19 26 -6 0 -6 -6 2 -15z"/>
<path d="M177 140 c18 -21 57 -27 67 -11 6 9 -44 31 -70 31 -10 0 -9 -5 3 -20z"/>
<path d="M1093 140 c4 -14 7 -51 7 -82 l0 -57 52 1 c38 0 48 2 35 9 -21 12
-46 60 -40 77 3 6 0 12 -6 12 -6 0 -11 6 -11 13 0 8 -10 22 -22 33 -21 19 -21
19 -15 -6z"/>
<path d="M276 114 c-10 -26 19 -32 49 -10 17 12 16 14 -13 18 -19 3 -33 0 -36
-8z"/>
<path d="M128 40 c-40 -21 -57 -40 -36 -40 23 1 98 39 98 50 0 15 -20 12 -62
-10z"/>
<path d="M508 3 c12 -2 30 -2 40 0 9 3 -1 5 -23 4 -22 0 -30 -2 -17 -4z"/>
</g>
</svg>
